<svg xmlns="http://www.w3.org/2000/svg" xmlns:xlink="http://www.w3.org/1999/xlink" width="2000" zoomAndPan="magnify" viewBox="0 0 1500 1499.999933" height="2000" preserveAspectRatio="xMidYMid meet" version="1.0"><defs><g/><clipPath id="4bf1d1c207"><path d="M 361.226562 283.195312 L 1138.976562 283.195312 L 1138.976562 827.695312 L 361.226562 827.695312 Z M 361.226562 283.195312 " clip-rule="nonzero"/></clipPath><clipPath id="f78eb5c350"><rect x="0" width="557" y="0" height="284"/></clipPath><clipPath id="bea196273b"><rect x="0" width="328" y="0" height="170"/></clipPath></defs><rect x="-150" width="1800" fill="#ffffff" y="-149.999993" height="1799.99992" fill-opacity="1"/><rect x="-150" width="1800" fill="#000000" y="-149.999993" height="1799.99992" fill-opacity="1"/><g clip-path="url(#4bf1d1c207)"><path fill="#ffffff" d="M 587.644531 446.035156 L 569.773438 463.90625 L 590.195312 484.328125 L 569.613281 504.910156 L 590.195312 525.496094 L 569.613281 546.078125 L 549.027344 525.496094 L 569.613281 504.910156 L 549.027344 484.328125 L 511.691406 521.664062 L 532.273438 542.25 L 512.011719 562.832031 L 553.019531 603.839844 L 511.851562 645.003906 L 491.269531 624.421875 L 471.324219 644.367188 L 510.257812 683.777344 L 489.671875 704.363281 L 530.839844 745.527344 L 510.257812 766.113281 L 530.839844 786.695312 L 551.421875 766.113281 L 572.007812 786.695312 L 592.589844 766.113281 L 572.007812 745.527344 L 592.589844 724.945312 L 572.007812 704.363281 L 592.589844 683.777344 L 572.007812 663.195312 L 592.589844 642.613281 L 613.171875 663.195312 L 592.589844 683.777344 L 613.171875 704.363281 L 592.589844 724.945312 L 613.171875 745.527344 L 674.921875 683.777344 L 654.339844 663.195312 L 674.921875 642.613281 L 695.507812 663.195312 L 716.566406 642.132812 L 750.234375 608.464844 L 804.964844 663.195312 L 825.546875 642.613281 L 846.132812 663.195312 L 825.546875 683.777344 L 887.296875 745.527344 L 907.882812 724.945312 L 928.464844 745.527344 L 907.882812 766.113281 L 928.464844 786.695312 L 949.046875 766.113281 L 969.632812 786.695312 L 990.214844 766.113281 L 969.632812 745.527344 L 1010.796875 704.363281 L 1031.382812 724.945312 L 1051.964844 704.363281 L 1031.382812 683.777344 L 1010.796875 704.363281 L 989.894531 683.777344 L 1028.828125 644.367188 L 1008.882812 624.421875 L 988.300781 645.003906 L 947.132812 603.839844 L 988.140625 562.832031 L 967.558594 542.25 L 988.140625 521.664062 L 950.804688 484.328125 L 930.21875 504.910156 L 950.804688 525.496094 L 930.21875 546.078125 L 909.636719 525.496094 L 930.21875 504.910156 L 909.636719 484.328125 L 930.058594 463.90625 L 912.1875 446.035156 L 750.074219 283.601562 Z M 845.8125 580.863281 L 866.394531 560.277344 L 886.980469 580.863281 L 866.394531 601.445312 Z M 613.171875 581.023438 L 633.757812 560.4375 L 654.339844 581.023438 L 633.757812 601.605469 Z M 905.964844 603.839844 L 926.550781 583.253906 L 947.132812 603.839844 L 926.550781 624.421875 Z M 553.019531 603.839844 L 573.601562 583.253906 L 594.183594 603.839844 L 573.601562 624.421875 Z M 804.804688 622.027344 L 825.386719 601.445312 L 845.972656 622.027344 L 825.386719 642.613281 Z M 654.179688 622.027344 L 674.761719 601.445312 L 695.347656 622.027344 L 674.761719 642.613281 Z M 866.394531 642.613281 L 886.980469 663.195312 L 866.394531 683.777344 L 845.8125 663.195312 Z M 633.597656 642.613281 L 654.179688 663.195312 L 633.597656 683.777344 L 613.011719 663.195312 Z M 907.5625 642.613281 L 928.144531 663.195312 L 907.5625 683.777344 L 928.144531 704.363281 L 907.5625 724.945312 L 886.980469 704.363281 L 907.5625 683.777344 L 886.980469 663.195312 Z M 948.730469 642.613281 L 989.894531 683.777344 L 969.3125 704.363281 L 928.144531 663.195312 Z M 551.421875 642.613281 L 572.007812 663.195312 L 530.839844 704.363281 L 510.257812 683.777344 Z M 928.144531 745.371094 L 948.730469 724.785156 L 969.3125 745.371094 L 948.730469 765.953125 Z M 530.839844 745.371094 L 551.421875 724.785156 L 572.007812 745.371094 L 551.421875 765.953125 Z M 988.140625 562.832031 L 1008.722656 542.25 L 1029.308594 562.832031 L 1008.722656 583.414062 L 1029.308594 604 L 1008.722656 624.582031 L 988.300781 604 L 1008.882812 583.414062 Z M 470.84375 562.832031 L 491.429688 542.25 L 512.011719 562.832031 L 491.429688 583.414062 L 512.011719 604 L 491.429688 624.582031 L 470.84375 604 L 491.429688 583.414062 Z M 1029.308594 604 L 1049.890625 583.414062 L 1070.472656 604 L 1049.890625 624.582031 Z M 429.679688 604 L 450.261719 624.582031 L 470.84375 604 L 450.261719 583.414062 Z M 1065.527344 658.25 L 1080.367188 673.089844 L 1095.207031 658.25 L 1080.367188 643.410156 Z M 404.945312 658.25 L 419.785156 673.089844 L 434.625 658.25 L 419.785156 643.410156 Z M 448.664062 704.363281 L 469.25 683.777344 L 489.832031 704.363281 L 469.25 724.945312 Z M 1119.9375 695.265625 L 1129.351562 704.839844 L 1138.765625 695.425781 L 1129.191406 685.851562 Z M 361.226562 695.425781 L 370.640625 704.839844 L 380.054688 695.265625 L 370.800781 685.851562 Z M 1072.546875 698.457031 L 1081.960938 708.03125 L 1091.375 698.617188 L 1081.800781 689.203125 Z M 408.617188 698.457031 L 418.03125 707.871094 L 427.445312 698.300781 L 418.03125 688.886719 Z M 1050.367188 746.167969 L 1065.207031 731.328125 L 1080.046875 746.167969 L 1065.207031 761.007812 Z M 420.105469 746.167969 L 434.945312 761.007812 L 449.78125 746.167969 L 434.945312 731.328125 Z M 1114.992188 753.027344 L 1124.566406 762.441406 L 1133.980469 753.027344 L 1124.566406 743.613281 Z M 366.171875 753.027344 L 375.585938 762.441406 L 385.160156 753.027344 L 375.585938 743.453125 Z M 989.894531 765.953125 L 1010.480469 745.371094 L 1031.0625 765.953125 L 1010.480469 786.535156 Z M 469.089844 766.113281 L 489.671875 745.527344 L 510.257812 766.113281 L 489.671875 786.695312 Z M 1072.070312 790.367188 L 1081.484375 799.78125 L 1090.898438 790.367188 L 1081.484375 780.953125 Z M 409.09375 790.367188 L 418.507812 799.78125 L 427.921875 790.367188 L 418.507812 780.953125 Z M 1017.5 812.226562 L 1032.339844 827.0625 L 1047.175781 812.226562 L 1032.339844 797.386719 Z M 453.132812 812.226562 L 467.972656 827.0625 L 482.8125 812.226562 L 467.972656 797.386719 Z M 453.132812 812.226562 " fill-opacity="1" fill-rule="evenodd"/></g><g transform="matrix(1, 0, 0, 1, 470, 783)"><g clip-path="url(#f78eb5c350)"><g fill="#ffffff" fill-opacity="1"><g transform="translate(2.766236, 222.74646)"><g><path d="M 43.90625 -142 C 59.457031 -142 71.847656 -139.0625 81.078125 -133.1875 C 90.304688 -127.320312 94.921875 -118.0625 94.921875 -105.40625 C 94.921875 -99.875 93.703125 -94.898438 91.265625 -90.484375 C 88.828125 -86.066406 85.101562 -81.945312 80.09375 -78.125 C 88.53125 -74.164062 94.789062 -69.21875 98.875 -63.28125 C 102.96875 -57.351562 105.015625 -50.101562 105.015625 -41.53125 C 105.015625 -33.226562 103.035156 -25.941406 99.078125 -19.671875 C 95.117188 -13.410156 89.613281 -8.566406 82.5625 -5.140625 C 75.507812 -1.710938 67.5 0 58.53125 0 L 16.21875 0 L 16.21875 -142 Z M 49.25 -86.421875 C 55.570312 -86.421875 60.347656 -87.738281 63.578125 -90.375 C 66.804688 -93.007812 68.421875 -96.832031 68.421875 -101.84375 C 68.421875 -106.457031 66.867188 -110.015625 63.765625 -112.515625 C 60.671875 -115.023438 56.160156 -116.28125 50.234375 -116.28125 L 43.3125 -116.28125 L 43.3125 -86.421875 Z M 52.40625 -25.703125 C 61.101562 -25.703125 67.628906 -27.019531 71.984375 -29.65625 C 76.335938 -32.300781 78.515625 -36.585938 78.515625 -42.515625 C 78.515625 -48.847656 76.109375 -53.726562 71.296875 -57.15625 C 66.484375 -60.582031 59.394531 -62.296875 50.03125 -62.296875 L 43.3125 -62.296875 L 43.3125 -25.703125 Z M 52.40625 -25.703125 "/></g></g></g><g fill="#ffffff" fill-opacity="1"><g transform="translate(113.492892, 222.74646)"><g><path d="M 52.609375 -142 C 67.765625 -142 79.59375 -138.535156 88.09375 -131.609375 C 96.601562 -124.691406 100.859375 -114.441406 100.859375 -100.859375 C 100.859375 -91.628906 98.550781 -83.847656 93.9375 -77.515625 C 89.320312 -71.191406 82.53125 -66.382812 73.5625 -63.09375 L 107.1875 0 L 77.71875 0 L 45.875 -60.125 L 43.3125 -60.125 L 43.3125 0 L 16.21875 0 L 16.21875 -142 Z M 55.765625 -86.421875 C 61.960938 -86.421875 66.609375 -87.640625 69.703125 -90.078125 C 72.804688 -92.515625 74.359375 -96.175781 74.359375 -101.0625 C 74.359375 -105.800781 72.707031 -109.390625 69.40625 -111.828125 C 66.113281 -114.273438 61.304688 -115.5 54.984375 -115.5 L 43.3125 -115.5 L 43.3125 -86.421875 Z M 55.765625 -86.421875 "/></g></g></g><g fill="#ffffff" fill-opacity="1"><g transform="translate(222.440019, 222.74646)"><g><path d="M 108.765625 0 L 97.890625 -29.265625 L 38.953125 -29.265625 L 28.078125 0 L 0 0 L 54.78125 -142 L 82.078125 -142 L 136.859375 0 Z M 49.046875 -55.765625 L 88 -55.765625 L 68.421875 -107.984375 Z M 49.046875 -55.765625 "/></g></g></g><g fill="#ffffff" fill-opacity="1"><g transform="translate(355.31217, 222.74646)"><g><path d="M 16.21875 -142 L 43.3125 -142 L 43.3125 0 L 16.21875 0 Z M 16.21875 -142 "/></g></g></g><g fill="#ffffff" fill-opacity="1"><g transform="translate(410.872854, 222.74646)"><g><path d="M 103.03125 -142 L 130.125 -142 L 130.125 0 L 104.03125 0 L 43.3125 -92.953125 L 43.3125 0 L 16.21875 0 L 16.21875 -142 L 42.125 -142 L 103.03125 -48.84375 Z M 103.03125 -142 "/></g></g></g></g></g><g fill="#ffffff" fill-opacity="1"><g transform="translate(582.706337, 1174.222607)"><g><path d="M 29.140625 0 L 24.734375 0 L 22.359375 -13.96875 L 22.15625 -15.203125 L 21.75 -14.03125 L 17.046875 0 L 13.03125 0 L 8.390625 -14 L 7.984375 -15.203125 L 7.78125 -14.03125 L 5.34375 0 L 0.90625 0 L 5.046875 -24 L 9.53125 -24 L 14.765625 -8.15625 L 15.078125 -7.21875 L 15.375 -8.15625 L 20.6875 -24 L 25.09375 -24 Z M 29.140625 0 "/></g></g></g><g fill="#ffffff" fill-opacity="1"><g transform="translate(612.775457, 1174.222607)"><g><path d="M 18.375 0 L 16.546875 -4.953125 L 6.578125 -4.953125 L 4.75 0 L 0 0 L 9.265625 -24 L 13.875 -24 L 23.125 0 Z M 8.28125 -9.421875 L 14.875 -9.421875 L 11.5625 -18.25 Z M 8.28125 -9.421875 "/></g></g></g><g fill="#ffffff" fill-opacity="1"><g transform="translate(635.895267, 1174.222607)"><g><path d="M 8.890625 -24 C 11.453125 -24 13.453125 -23.410156 14.890625 -22.234375 C 16.328125 -21.066406 17.046875 -19.335938 17.046875 -17.046875 C 17.046875 -15.484375 16.65625 -14.164062 15.875 -13.09375 C 15.09375 -12.03125 13.945312 -11.21875 12.4375 -10.65625 L 18.109375 0 L 13.140625 0 L 7.75 -10.15625 L 7.3125 -10.15625 L 7.3125 0 L 2.734375 0 L 2.734375 -24 Z M 9.421875 -14.609375 C 10.472656 -14.609375 11.257812 -14.8125 11.78125 -15.21875 C 12.300781 -15.632812 12.5625 -16.253906 12.5625 -17.078125 C 12.5625 -17.878906 12.28125 -18.484375 11.71875 -18.890625 C 11.164062 -19.304688 10.359375 -19.515625 9.296875 -19.515625 L 7.3125 -19.515625 L 7.3125 -14.609375 Z M 9.421875 -14.609375 "/></g></g></g><g fill="#ffffff" fill-opacity="1"><g transform="translate(654.972452, 1174.222607)"><g><path d="M 20.09375 0 L 14.90625 0 L 7.3125 -10.765625 L 7.3125 0 L 2.734375 0 L 2.734375 -24 L 7.3125 -24 L 7.3125 -14.640625 L 14.234375 -24 L 19.390625 -24 L 11.03125 -12.765625 Z M 20.09375 0 "/></g></g></g><g fill="#ffffff" fill-opacity="1"><g transform="translate(675.051944, 1174.222607)"><g><path d="M 2.734375 -24 L 15.84375 -24 L 15.84375 -19.546875 L 7.3125 -19.546875 L 7.3125 -15.171875 L 15.84375 -15.171875 L 15.84375 -10.828125 L 7.3125 -10.828125 L 7.3125 -4.484375 L 15.84375 -4.484375 L 15.84375 0 L 2.734375 0 Z M 2.734375 -24 "/></g></g></g><g fill="#ffffff" fill-opacity="1"><g transform="translate(692.391802, 1174.222607)"><g><path d="M 4.640625 -19.515625 L 0.375 -19.515625 L 0.375 -24 L 13.640625 -24 L 13.640625 -19.515625 L 9.21875 -19.515625 L 9.21875 0 L 4.640625 0 Z M 4.640625 -19.515625 "/></g></g></g><g fill="#ffffff" fill-opacity="1"><g transform="translate(706.424054, 1174.222607)"><g><path d="M 2.734375 -24 L 7.3125 -24 L 7.3125 0 L 2.734375 0 Z M 2.734375 -24 "/></g></g></g><g fill="#ffffff" fill-opacity="1"><g transform="translate(716.480503, 1174.222607)"><g><path d="M 17.40625 -24 L 21.984375 -24 L 21.984375 0 L 17.578125 0 L 7.3125 -15.703125 L 7.3125 0 L 2.734375 0 L 2.734375 -24 L 7.125 -24 L 17.40625 -8.25 Z M 17.40625 -24 "/></g></g></g><g fill="#ffffff" fill-opacity="1"><g transform="translate(741.203996, 1174.222607)"><g><path d="M 26.609375 -12.203125 L 26.609375 -12.171875 C 26.609375 -9.609375 26.113281 -7.367188 25.125 -5.453125 C 24.144531 -3.535156 22.753906 -2.046875 20.953125 -0.984375 C 19.148438 0.078125 17.054688 0.609375 14.671875 0.609375 C 12.085938 0.609375 9.804688 0.03125 7.828125 -1.125 C 5.859375 -2.289062 4.335938 -3.84375 3.265625 -5.78125 C 2.203125 -7.71875 1.671875 -9.832031 1.671875 -12.125 C 1.671875 -14.375 2.21875 -16.445312 3.3125 -18.34375 C 4.40625 -20.238281 5.929688 -21.75 7.890625 -22.875 C 9.847656 -24 12.0625 -24.5625 14.53125 -24.5625 C 16.8125 -24.5625 18.769531 -24.1875 20.40625 -23.4375 C 22.039062 -22.695312 23.539062 -21.582031 24.90625 -20.09375 L 21.6875 -16.90625 C 20.644531 -18 19.539062 -18.816406 18.375 -19.359375 C 17.21875 -19.910156 15.953125 -20.1875 14.578125 -20.1875 C 13.015625 -20.1875 11.597656 -19.816406 10.328125 -19.078125 C 9.054688 -18.347656 8.0625 -17.363281 7.34375 -16.125 C 6.632812 -14.882812 6.28125 -13.53125 6.28125 -12.0625 C 6.28125 -10.550781 6.660156 -9.160156 7.421875 -7.890625 C 8.179688 -6.617188 9.21875 -5.613281 10.53125 -4.875 C 11.84375 -4.144531 13.289062 -3.78125 14.875 -3.78125 C 16.457031 -3.78125 17.785156 -4.113281 18.859375 -4.78125 C 19.941406 -5.445312 20.804688 -6.472656 21.453125 -7.859375 L 14.5 -7.859375 L 14.5 -12.203125 Z M 26.609375 -12.203125 "/></g></g></g><g fill="#ffffff" fill-opacity="1"><g transform="translate(769.268501, 1174.222607)"><g/></g></g><g fill="#ffffff" fill-opacity="1"><g transform="translate(778.623335, 1174.222607)"><g><path d="M 18.375 0 L 16.546875 -4.953125 L 6.578125 -4.953125 L 4.75 0 L 0 0 L 9.265625 -24 L 13.875 -24 L 23.125 0 Z M 8.28125 -9.421875 L 14.875 -9.421875 L 11.5625 -18.25 Z M 8.28125 -9.421875 "/></g></g></g><g fill="#ffffff" fill-opacity="1"><g transform="translate(801.743145, 1174.222607)"><g><path d="M 26.609375 -12.203125 L 26.609375 -12.171875 C 26.609375 -9.609375 26.113281 -7.367188 25.125 -5.453125 C 24.144531 -3.535156 22.753906 -2.046875 20.953125 -0.984375 C 19.148438 0.078125 17.054688 0.609375 14.671875 0.609375 C 12.085938 0.609375 9.804688 0.03125 7.828125 -1.125 C 5.859375 -2.289062 4.335938 -3.84375 3.265625 -5.78125 C 2.203125 -7.71875 1.671875 -9.832031 1.671875 -12.125 C 1.671875 -14.375 2.21875 -16.445312 3.3125 -18.34375 C 4.40625 -20.238281 5.929688 -21.75 7.890625 -22.875 C 9.847656 -24 12.0625 -24.5625 14.53125 -24.5625 C 16.8125 -24.5625 18.769531 -24.1875 20.40625 -23.4375 C 22.039062 -22.695312 23.539062 -21.582031 24.90625 -20.09375 L 21.6875 -16.90625 C 20.644531 -18 19.539062 -18.816406 18.375 -19.359375 C 17.21875 -19.910156 15.953125 -20.1875 14.578125 -20.1875 C 13.015625 -20.1875 11.597656 -19.816406 10.328125 -19.078125 C 9.054688 -18.347656 8.0625 -17.363281 7.34375 -16.125 C 6.632812 -14.882812 6.28125 -13.53125 6.28125 -12.0625 C 6.28125 -10.550781 6.660156 -9.160156 7.421875 -7.890625 C 8.179688 -6.617188 9.21875 -5.613281 10.53125 -4.875 C 11.84375 -4.144531 13.289062 -3.78125 14.875 -3.78125 C 16.457031 -3.78125 17.785156 -4.113281 18.859375 -4.78125 C 19.941406 -5.445312 20.804688 -6.472656 21.453125 -7.859375 L 14.5 -7.859375 L 14.5 -12.203125 Z M 26.609375 -12.203125 "/></g></g></g><g fill="#ffffff" fill-opacity="1"><g transform="translate(829.807649, 1174.222607)"><g><path d="M 2.734375 -24 L 15.84375 -24 L 15.84375 -19.546875 L 7.3125 -19.546875 L 7.3125 -15.171875 L 15.84375 -15.171875 L 15.84375 -10.828125 L 7.3125 -10.828125 L 7.3125 -4.484375 L 15.84375 -4.484375 L 15.84375 0 L 2.734375 0 Z M 2.734375 -24 "/></g></g></g><g fill="#ffffff" fill-opacity="1"><g transform="translate(847.147507, 1174.222607)"><g><path d="M 17.40625 -24 L 21.984375 -24 L 21.984375 0 L 17.578125 0 L 7.3125 -15.703125 L 7.3125 0 L 2.734375 0 L 2.734375 -24 L 7.125 -24 L 17.40625 -8.25 Z M 17.40625 -24 "/></g></g></g><g fill="#ffffff" fill-opacity="1"><g transform="translate(871.871, 1174.222607)"><g><path d="M 14.265625 0.609375 C 11.796875 0.609375 9.597656 0.0664062 7.671875 -1.015625 C 5.742188 -2.097656 4.242188 -3.597656 3.171875 -5.515625 C 2.109375 -7.429688 1.578125 -9.601562 1.578125 -12.03125 C 1.578125 -14.476562 2.15625 -16.660156 3.3125 -18.578125 C 4.46875 -20.492188 6.019531 -21.972656 7.96875 -23.015625 C 9.914062 -24.066406 12.039062 -24.59375 14.34375 -24.59375 C 16.300781 -24.59375 18.1875 -24.175781 20 -23.34375 C 21.820312 -22.507812 23.378906 -21.320312 24.671875 -19.78125 L 21.453125 -16.71875 C 20.359375 -17.875 19.222656 -18.742188 18.046875 -19.328125 C 16.867188 -19.921875 15.597656 -20.21875 14.234375 -20.21875 C 12.742188 -20.21875 11.375 -19.859375 10.125 -19.140625 C 8.875 -18.429688 7.878906 -17.453125 7.140625 -16.203125 C 6.410156 -14.960938 6.046875 -13.570312 6.046875 -12.03125 C 6.046875 -10.40625 6.398438 -8.96875 7.109375 -7.71875 C 7.828125 -6.46875 8.816406 -5.5 10.078125 -4.8125 C 11.335938 -4.125 12.757812 -3.78125 14.34375 -3.78125 C 15.769531 -3.78125 17.03125 -4.054688 18.125 -4.609375 C 19.226562 -5.171875 20.382812 -6.050781 21.59375 -7.25 L 24.703125 -4.015625 C 23.585938 -2.921875 22.519531 -2.046875 21.5 -1.390625 C 20.488281 -0.734375 19.398438 -0.238281 18.234375 0.09375 C 17.066406 0.4375 15.742188 0.609375 14.265625 0.609375 Z M 14.265625 0.609375 "/></g></g></g><g fill="#ffffff" fill-opacity="1"><g transform="translate(897.930889, 1174.222607)"><g><path d="M 7.421875 -10.390625 L 0.328125 -24 L 5.25 -24 L 9.71875 -14.9375 L 14.140625 -24 L 19.015625 -24 L 12 -10.390625 L 12 0 L 7.421875 0 Z M 7.421875 -10.390625 "/></g></g></g><g transform="matrix(1, 0, 0, 1, 589, 978)"><g clip-path="url(#bea196273b)"><g fill="#ffffff" fill-opacity="1"><g transform="translate(2.062819, 129.802248)"><g><path d="M 10.234375 -84.453125 L 18.703125 -84.453125 L 18.703125 -49.046875 L 61.75 -49.046875 L 61.75 -84.453125 L 70.21875 -84.453125 L 70.21875 0 L 61.75 0 L 61.75 -40.8125 L 18.703125 -40.8125 L 18.703125 0 L 10.234375 0 Z M 10.234375 -84.453125 "/></g></g></g><g fill="#ffffff" fill-opacity="1"><g transform="translate(80.035853, 129.802248)"><g><path d="M 72.34375 0 L 59.40625 -27.765625 L 22.34375 -27.765625 L 9.40625 0 L 0.59375 0 L 40 -84.453125 L 41.984375 -84.453125 L 81.15625 0 Z M 26.109375 -35.765625 L 55.640625 -35.765625 L 40.9375 -67.40625 Z M 26.109375 -35.765625 "/></g></g></g><g fill="#ffffff" fill-opacity="1"><g transform="translate(159.420209, 129.802248)"><g><path d="M 52.109375 2 C 42.929688 2 34.890625 0.0195312 27.984375 -3.9375 C 21.085938 -7.894531 15.796875 -13.265625 12.109375 -20.046875 C 8.429688 -26.835938 6.59375 -34.390625 6.59375 -42.703125 C 6.59375 -50.929688 8.550781 -58.378906 12.46875 -65.046875 C 16.382812 -71.710938 21.8125 -76.96875 28.75 -80.8125 C 35.695312 -84.65625 43.484375 -86.578125 52.109375 -86.578125 C 59.796875 -86.578125 66.773438 -85.066406 73.046875 -82.046875 C 79.316406 -79.023438 84.492188 -74.613281 88.578125 -68.8125 L 81.859375 -63.75 C 78.253906 -68.53125 73.921875 -72.15625 68.859375 -74.625 C 63.804688 -77.101562 58.257812 -78.34375 52.21875 -78.34375 C 45.5625 -78.34375 39.425781 -76.789062 33.8125 -73.6875 C 28.207031 -70.59375 23.738281 -66.28125 20.40625 -60.75 C 17.070312 -55.21875 15.40625 -48.960938 15.40625 -41.984375 C 15.40625 -35.085938 17.03125 -28.894531 20.28125 -23.40625 C 23.539062 -17.914062 28.015625 -13.601562 33.703125 -10.46875 C 39.390625 -7.332031 45.722656 -5.765625 52.703125 -5.765625 C 58.578125 -5.765625 64.003906 -6.941406 68.984375 -9.296875 C 73.960938 -11.648438 78.414062 -15.140625 82.34375 -19.765625 L 89.046875 -14.703125 C 84.734375 -9.210938 79.421875 -5.054688 73.109375 -2.234375 C 66.796875 0.585938 59.796875 2 52.109375 2 Z M 52.109375 2 "/></g></g></g><g fill="#ffffff" fill-opacity="1"><g transform="translate(252.799862, 129.802248)"><g><path d="M 67.046875 0 L 56.578125 0 L 18.703125 -41.875 L 18.703125 0 L 10.234375 0 L 10.234375 -84.453125 L 18.703125 -84.453125 L 18.703125 -49.40625 L 52.8125 -84.453125 L 63.171875 -84.453125 L 25.765625 -45.515625 Z M 67.046875 0 "/></g></g></g></g></g></svg>